<?xml version="1.0" encoding="utf-8"?>
<!-- Generator: Adobe Illustrator 27.5.0, SVG Export Plug-In . SVG Version: 6.00 Build 0)  -->
<svg version="1.1" id="Layer_1" xmlns="http://www.w3.org/2000/svg" xmlns:xlink="http://www.w3.org/1999/xlink" x="0px" y="0px"
	 viewBox="0 0 288 288" style="enable-background:new 0 0 288 288;" xml:space="preserve">
<g>
	<rect x="0" width="288" height="288"/>
	<g>
		<g>
			
				<linearGradient id="SVGID_1_" gradientUnits="userSpaceOnUse" x1="931.8613" y1="-1379.5923" x2="943.1862" y2="-1379.5923" gradientTransform="matrix(0.8671 0.4981 -0.4981 0.8671 -1260.9883 804.6877)">
				<stop  offset="0" style="stop-color:#020202"/>
				<stop  offset="0.1218" style="stop-color:#666666"/>
				<stop  offset="0.2057" style="stop-color:#484848"/>
				<stop  offset="0.3496" style="stop-color:#171717"/>
				<stop  offset="0.3527" style="stop-color:#181818"/>
				<stop  offset="0.5257" style="stop-color:#3D3D3D"/>
				<stop  offset="0.6649" style="stop-color:#555555"/>
				<stop  offset="0.7522" style="stop-color:#5D5D5D"/>
				<stop  offset="1" style="stop-color:#0E0E0E"/>
			</linearGradient>
			<path style="fill:url(#SVGID_1_);" d="M242.361,69.77c-2.712-1.558-5.331-2.088-5.85-1.184l-5.555,9.671l9.82,5.641l5.555-9.671
				C246.85,73.323,245.073,71.328,242.361,69.77z"/>
			
				<linearGradient id="SVGID_00000116924016057841555110000010021464929221887902_" gradientUnits="userSpaceOnUse" x1="929.5964" y1="-1373.3837" x2="945.4513" y2="-1373.3837" gradientTransform="matrix(0.8671 0.4981 -0.4981 0.8671 -1260.9883 804.6877)">
				<stop  offset="0" style="stop-color:#020202"/>
				<stop  offset="0.1218" style="stop-color:#666666"/>
				<stop  offset="0.2057" style="stop-color:#484848"/>
				<stop  offset="0.3496" style="stop-color:#171717"/>
				<stop  offset="0.3527" style="stop-color:#181818"/>
				<stop  offset="0.5257" style="stop-color:#3D3D3D"/>
				<stop  offset="0.6649" style="stop-color:#555555"/>
				<stop  offset="0.7522" style="stop-color:#5D5D5D"/>
				<stop  offset="1" style="stop-color:#0E0E0E"/>
			</linearGradient>
			<path style="fill:url(#SVGID_00000116924016057841555110000010021464929221887902_);" d="M241.227,71.745
				c-3.796-2.181-7.463-2.923-8.19-1.657l-9.095,15.834l13.748,7.897l9.095-15.834C247.511,76.719,245.023,73.925,241.227,71.745z"
				/>
			<path style="fill:#FFFFFF;" d="M237.689,93.818c-0.727,1.265-4.394,0.524-8.19-1.657s-6.285-4.974-5.558-6.24
				c0.727-1.265,4.394-0.523,8.19,1.657C235.928,89.759,238.416,92.553,237.689,93.818z"/>
		</g>
		<g>
			
				<radialGradient id="SVGID_00000152963755759181223770000008417775637904984707_" cx="555.1082" cy="-1659.2891" r="66.7286" fx="555.4182" fy="-1724.3901" gradientTransform="matrix(1.0785 0.6195 -0.4223 0.7352 -1095.5114 1012.6577)" gradientUnits="userSpaceOnUse">
				<stop  offset="0" style="stop-color:#ECECEC"/>
				<stop  offset="0.2642" style="stop-color:#9D9D9D"/>
				<stop  offset="0.5128" style="stop-color:#5A5A5A"/>
				<stop  offset="0.7194" style="stop-color:#292929"/>
				<stop  offset="0.8762" style="stop-color:#0B0B0B"/>
				<stop  offset="0.9648" style="stop-color:#000000"/>
			</radialGradient>
			<path style="opacity:0.2;fill:url(#SVGID_00000152963755759181223770000008417775637904984707_);" d="M275.855,177.976
				c-15.564,27.095-60.401,30.552-100.146,7.722c-39.745-22.83-59.347-63.302-43.783-90.397
				c15.564-27.095,60.401-30.552,100.145-7.722C271.816,110.408,291.419,150.88,275.855,177.976z"/>
			
				<radialGradient id="SVGID_00000099649885881894173970000003973082102782133397_" cx="555.1085" cy="-1689.0771" r="36.9414" fx="555.28" fy="-1725.1176" gradientTransform="matrix(1.0785 0.6195 -0.4223 0.7352 -1095.5114 1012.6577)" gradientUnits="userSpaceOnUse">
				<stop  offset="0.0594" style="stop-color:#ECECEC"/>
				<stop  offset="0.0694" style="stop-color:#E6E6E6"/>
				<stop  offset="0.1684" style="stop-color:#B1B1B1"/>
				<stop  offset="0.2711" style="stop-color:#828282"/>
				<stop  offset="0.3756" style="stop-color:#5A5A5A"/>
				<stop  offset="0.4823" style="stop-color:#393939"/>
				<stop  offset="0.592" style="stop-color:#202020"/>
				<stop  offset="0.7057" style="stop-color:#0E0E0E"/>
				<stop  offset="0.8262" style="stop-color:#030303"/>
				<stop  offset="0.9648" style="stop-color:#000000"/>
			</radialGradient>
			<path style="opacity:0.6;fill:url(#SVGID_00000099649885881894173970000003973082102782133397_);" d="M256.31,137.623
				c-8.616,15-33.438,16.914-55.441,4.275c-22.003-12.639-32.855-35.045-24.239-50.045c8.616-15,33.438-16.914,55.441-4.275
				C254.075,100.217,264.927,122.623,256.31,137.623z"/>
		</g>
	</g>
	<g>
		<g>
			
				<linearGradient id="SVGID_00000165233757618929679270000007250440378866379165_" gradientUnits="userSpaceOnUse" x1="-1639.3469" y1="97.4217" x2="-1628.022" y2="97.4217" gradientTransform="matrix(-0.8671 0.4981 0.4981 0.8671 -1418.8939 804.6877)">
				<stop  offset="0" style="stop-color:#020202"/>
				<stop  offset="0.1218" style="stop-color:#666666"/>
				<stop  offset="0.2057" style="stop-color:#484848"/>
				<stop  offset="0.3496" style="stop-color:#171717"/>
				<stop  offset="0.3527" style="stop-color:#181818"/>
				<stop  offset="0.5257" style="stop-color:#3D3D3D"/>
				<stop  offset="0.6649" style="stop-color:#555555"/>
				<stop  offset="0.7522" style="stop-color:#5D5D5D"/>
				<stop  offset="1" style="stop-color:#0E0E0E"/>
			</linearGradient>
			<path style="fill:url(#SVGID_00000165233757618929679270000007250440378866379165_);" d="M42.952,69.77
				c2.712-1.558,5.331-2.088,5.85-1.184l5.555,9.671l-9.82,5.641l-5.555-9.671C38.463,73.323,40.24,71.328,42.952,69.77z"/>
			
				<linearGradient id="SVGID_00000127024644814215155710000008849093040206098594_" gradientUnits="userSpaceOnUse" x1="-1641.6117" y1="103.6303" x2="-1625.7568" y2="103.6303" gradientTransform="matrix(-0.8671 0.4981 0.4981 0.8671 -1418.8939 804.6877)">
				<stop  offset="0" style="stop-color:#020202"/>
				<stop  offset="0.1218" style="stop-color:#666666"/>
				<stop  offset="0.2057" style="stop-color:#484848"/>
				<stop  offset="0.3496" style="stop-color:#171717"/>
				<stop  offset="0.3527" style="stop-color:#181818"/>
				<stop  offset="0.5257" style="stop-color:#3D3D3D"/>
				<stop  offset="0.6649" style="stop-color:#555555"/>
				<stop  offset="0.7522" style="stop-color:#5D5D5D"/>
				<stop  offset="1" style="stop-color:#0E0E0E"/>
			</linearGradient>
			<path style="fill:url(#SVGID_00000127024644814215155710000008849093040206098594_);" d="M44.086,71.745
				c3.796-2.181,7.463-2.923,8.19-1.657l9.095,15.834l-13.748,7.897l-9.095-15.834C37.802,76.719,40.29,73.925,44.086,71.745z"/>
			<path style="fill:#FFFFFF;" d="M47.624,93.818c0.727,1.265,4.394,0.524,8.19-1.657s6.285-4.974,5.558-6.24
				c-0.727-1.265-4.394-0.523-8.19,1.657C49.385,89.759,46.897,92.553,47.624,93.818z"/>
		</g>
		<g>
			
				<radialGradient id="SVGID_00000064313825436749191300000007116185766726092935_" cx="-1512.1782" cy="82.664" r="66.7286" fx="-1511.8683" fy="17.5629" gradientTransform="matrix(-1.0785 0.6195 0.4223 0.7352 -1584.3708 1012.6577)" gradientUnits="userSpaceOnUse">
				<stop  offset="0" style="stop-color:#ECECEC"/>
				<stop  offset="0.2642" style="stop-color:#9D9D9D"/>
				<stop  offset="0.5128" style="stop-color:#5A5A5A"/>
				<stop  offset="0.7194" style="stop-color:#292929"/>
				<stop  offset="0.8762" style="stop-color:#0B0B0B"/>
				<stop  offset="0.9648" style="stop-color:#000000"/>
			</radialGradient>
			<path style="opacity:0.2;fill:url(#SVGID_00000064313825436749191300000007116185766726092935_);" d="M9.458,177.976
				c15.564,27.095,60.4,30.552,100.146,7.722c39.745-22.83,59.347-63.302,43.783-90.397c-15.564-27.095-60.401-30.552-100.145-7.722
				C13.497,110.408-6.106,150.88,9.458,177.976z"/>
			
				<radialGradient id="SVGID_00000003789238625398218350000014353778463525260457_" cx="-1512.1779" cy="52.8759" r="36.9414" fx="-1512.0062" fy="16.8355" gradientTransform="matrix(-1.0785 0.6195 0.4223 0.7352 -1584.3708 1012.6577)" gradientUnits="userSpaceOnUse">
				<stop  offset="0.0594" style="stop-color:#ECECEC"/>
				<stop  offset="0.0694" style="stop-color:#E6E6E6"/>
				<stop  offset="0.1684" style="stop-color:#B1B1B1"/>
				<stop  offset="0.2711" style="stop-color:#828282"/>
				<stop  offset="0.3756" style="stop-color:#5A5A5A"/>
				<stop  offset="0.4823" style="stop-color:#393939"/>
				<stop  offset="0.592" style="stop-color:#202020"/>
				<stop  offset="0.7057" style="stop-color:#0E0E0E"/>
				<stop  offset="0.8262" style="stop-color:#030303"/>
				<stop  offset="0.9648" style="stop-color:#000000"/>
			</radialGradient>
			<path style="opacity:0.6;fill:url(#SVGID_00000003789238625398218350000014353778463525260457_);" d="M29.003,137.623
				c8.616,15,33.438,16.914,55.441,4.275c22.003-12.639,32.855-35.045,24.239-50.045c-8.616-15-33.438-16.914-55.441-4.275
				C31.238,100.217,20.386,122.623,29.003,137.623z"/>
		</g>
	</g>
	<g>
		
			<radialGradient id="SVGID_00000059297116943734440120000015011255733409254290_" cx="146.8115" cy="252.4168" r="158.5267" gradientUnits="userSpaceOnUse">
			<stop  offset="0.2723" style="stop-color:#242424"/>
			<stop  offset="0.3688" style="stop-color:#282828"/>
			<stop  offset="0.4672" style="stop-color:#343434"/>
			<stop  offset="0.5665" style="stop-color:#494949"/>
			<stop  offset="0.6664" style="stop-color:#656565"/>
			<stop  offset="0.7669" style="stop-color:#8A8A8A"/>
			<stop  offset="0.8678" style="stop-color:#B8B8B8"/>
			<stop  offset="0.9673" style="stop-color:#ECECEC"/>
			<stop  offset="1" style="stop-color:#FFFFFF"/>
		</radialGradient>
		<path style="fill:url(#SVGID_00000059297116943734440120000015011255733409254290_);" d="M65.627,135.654v-14.805
			c0-10.565,4.192-15.848,12.577-15.848c1.767,0,3.338,0.244,4.71,0.733c1.373,0.488,2.526,1.164,3.458,2.024
			c0.931,0.861,1.698,1.922,2.301,3.18c0.603,1.259,1.036,2.625,1.301,4.099c0.265,1.474,0.397,3.097,0.397,4.869v3.85h-8.626
			v-4.123c0-0.811-0.017-1.511-0.048-2.099c-0.033-0.588-0.117-1.258-0.253-2.012c-0.137-0.753-0.321-1.366-0.554-1.839
			c-0.233-0.472-0.578-0.873-1.036-1.205c-0.458-0.331-1.008-0.497-1.651-0.497c-2.538,0-3.807,2.203-3.807,6.608v19.301
			c0,4.388,1.269,6.583,3.807,6.583c0.755,0,1.39-0.224,1.904-0.671c0.514-0.447,0.883-1.08,1.109-1.9
			c0.225-0.82,0.377-1.623,0.458-2.409c0.08-0.786,0.12-1.685,0.12-2.695v-4.595h8.578v3.775c-0.032,1.706-0.168,3.279-0.409,4.72
			c-0.241,1.441-0.651,2.84-1.229,4.198c-0.578,1.358-1.313,2.505-2.204,3.44c-0.891,0.936-2.044,1.689-3.457,2.261
			c-1.414,0.571-3.036,0.857-4.867,0.857c-1.879,0-3.546-0.278-5-0.832c-1.454-0.555-2.65-1.3-3.59-2.236
			c-0.939-0.936-1.715-2.087-2.325-3.453c-0.611-1.366-1.04-2.803-1.289-4.31C65.75,139.115,65.627,137.458,65.627,135.654z"/>
		
			<radialGradient id="SVGID_00000034775121591437952520000008633074639849546133_" cx="146.8114" cy="252.4168" r="158.5261" gradientUnits="userSpaceOnUse">
			<stop  offset="0.2723" style="stop-color:#242424"/>
			<stop  offset="0.3688" style="stop-color:#282828"/>
			<stop  offset="0.4672" style="stop-color:#343434"/>
			<stop  offset="0.5665" style="stop-color:#494949"/>
			<stop  offset="0.6664" style="stop-color:#656565"/>
			<stop  offset="0.7669" style="stop-color:#8A8A8A"/>
			<stop  offset="0.8678" style="stop-color:#B8B8B8"/>
			<stop  offset="0.9673" style="stop-color:#ECECEC"/>
			<stop  offset="1" style="stop-color:#FFFFFF"/>
		</radialGradient>
		<path style="fill:url(#SVGID_00000034775121591437952520000008633074639849546133_);" d="M93.914,135.877v-15.028
			c0-10.565,4.224-15.848,12.673-15.848c8.465,0,12.699,5.283,12.699,15.848v14.805c0,1.788-0.129,3.44-0.386,4.955
			c-0.257,1.515-0.695,2.952-1.313,4.31c-0.619,1.358-1.406,2.513-2.361,3.465c-0.956,0.953-2.165,1.702-3.626,2.248
			c-1.462,0.547-3.132,0.82-5.012,0.82c-1.863,0-3.526-0.269-4.987-0.807c-1.462-0.538-2.667-1.267-3.614-2.186
			c-0.947-0.919-1.731-2.045-2.349-3.378c-0.619-1.333-1.06-2.753-1.325-4.26C94.046,139.314,93.914,137.666,93.914,135.877z
			 M110.515,137.914v-19.325c0-4.405-1.309-6.608-3.928-6.608c-0.787,0-1.454,0.203-2,0.609c-0.546,0.406-0.948,0.961-1.205,1.664
			c-0.257,0.704-0.438,1.399-0.542,2.087c-0.105,0.687-0.157,1.437-0.157,2.248v19.325c0,4.389,1.301,6.583,3.903,6.583
			C109.206,144.496,110.515,142.303,110.515,137.914z"/>
		
			<radialGradient id="SVGID_00000042706919452043020570000003098149207280064666_" cx="146.8114" cy="252.4166" r="158.526" gradientUnits="userSpaceOnUse">
			<stop  offset="0.2723" style="stop-color:#242424"/>
			<stop  offset="0.3688" style="stop-color:#282828"/>
			<stop  offset="0.4672" style="stop-color:#343434"/>
			<stop  offset="0.5665" style="stop-color:#494949"/>
			<stop  offset="0.6664" style="stop-color:#656565"/>
			<stop  offset="0.7669" style="stop-color:#8A8A8A"/>
			<stop  offset="0.8678" style="stop-color:#B8B8B8"/>
			<stop  offset="0.9673" style="stop-color:#ECECEC"/>
			<stop  offset="1" style="stop-color:#FFFFFF"/>
		</radialGradient>
		<path style="fill:url(#SVGID_00000042706919452043020570000003098149207280064666_);" d="M123.887,150.582V105.87h10.505
			l4.626,29.808l4.988-29.808h10.144v44.712h-6.458l-0.193-31.448c-0.482,3.229-1.325,8.471-2.53,15.724
			c-1.205,7.253-2.048,12.495-2.53,15.724h-6.554l-5.325-31.646l-0.193,31.646H123.887z"/>
		
			<radialGradient id="SVGID_00000065774501294483743990000002171211627260636058_" cx="146.8114" cy="252.4166" r="158.5258" gradientUnits="userSpaceOnUse">
			<stop  offset="0.2723" style="stop-color:#242424"/>
			<stop  offset="0.3688" style="stop-color:#282828"/>
			<stop  offset="0.4672" style="stop-color:#343434"/>
			<stop  offset="0.5665" style="stop-color:#494949"/>
			<stop  offset="0.6664" style="stop-color:#656565"/>
			<stop  offset="0.7669" style="stop-color:#8A8A8A"/>
			<stop  offset="0.8678" style="stop-color:#B8B8B8"/>
			<stop  offset="0.9673" style="stop-color:#ECECEC"/>
			<stop  offset="1" style="stop-color:#FFFFFF"/>
		</radialGradient>
		<path style="fill:url(#SVGID_00000065774501294483743990000002171211627260636058_);" d="M159.307,150.582V105.87h8.771v44.712
			H159.307z"/>
		
			<radialGradient id="SVGID_00000155861572557032334340000007590550835353718945_" cx="146.8114" cy="252.4164" r="158.5262" gradientUnits="userSpaceOnUse">
			<stop  offset="0.2723" style="stop-color:#242424"/>
			<stop  offset="0.3688" style="stop-color:#282828"/>
			<stop  offset="0.4672" style="stop-color:#343434"/>
			<stop  offset="0.5665" style="stop-color:#494949"/>
			<stop  offset="0.6664" style="stop-color:#656565"/>
			<stop  offset="0.7669" style="stop-color:#8A8A8A"/>
			<stop  offset="0.8678" style="stop-color:#B8B8B8"/>
			<stop  offset="0.9673" style="stop-color:#ECECEC"/>
			<stop  offset="1" style="stop-color:#FFFFFF"/>
		</radialGradient>
		<path style="fill:url(#SVGID_00000155861572557032334340000007590550835353718945_);" d="M173.234,150.582v-44.737h6.313
			l9.517,23.399v-23.399h7.277v44.737h-6.072l-9.494-24.815v24.815H173.234z"/>
		
			<radialGradient id="SVGID_00000149374915177273178770000009028653055681048754_" cx="146.8114" cy="252.4168" r="158.5269" gradientUnits="userSpaceOnUse">
			<stop  offset="0.2723" style="stop-color:#242424"/>
			<stop  offset="0.3688" style="stop-color:#282828"/>
			<stop  offset="0.4672" style="stop-color:#343434"/>
			<stop  offset="0.5665" style="stop-color:#494949"/>
			<stop  offset="0.6664" style="stop-color:#656565"/>
			<stop  offset="0.7669" style="stop-color:#8A8A8A"/>
			<stop  offset="0.8678" style="stop-color:#B8B8B8"/>
			<stop  offset="0.9673" style="stop-color:#ECECEC"/>
			<stop  offset="1" style="stop-color:#FFFFFF"/>
		</radialGradient>
		<path style="fill:url(#SVGID_00000149374915177273178770000009028653055681048754_);" d="M200.943,136.597v-15.748
			c0-10.565,4.264-15.848,12.794-15.848c1.799,0,3.401,0.244,4.807,0.733c1.405,0.488,2.582,1.164,3.53,2.024
			c0.948,0.861,1.727,1.922,2.338,3.18c0.61,1.259,1.052,2.625,1.325,4.099c0.273,1.474,0.41,3.097,0.41,4.869v2.632h-8.385v-3.129
			c0-0.778-0.02-1.462-0.06-2.049c-0.04-0.588-0.14-1.242-0.301-1.963c-0.161-0.72-0.378-1.312-0.651-1.776
			c-0.274-0.464-0.667-0.853-1.181-1.167c-0.514-0.315-1.124-0.472-1.831-0.472c-2.683,0-4.024,2.203-4.024,6.608v19.301
			c0,4.388,1.341,6.583,4.024,6.583c2.666,0,4-2.277,4-6.831v-3.577h-4.964v-6.483h13.734v23.002h-6.024l-1.108-3.13
			c-0.74,1.193-1.792,2.157-3.157,2.894c-1.366,0.737-2.771,1.105-4.217,1.105c-1.559,0-2.976-0.294-4.253-0.882
			c-1.277-0.588-2.33-1.366-3.157-2.335c-0.828-0.969-1.522-2.107-2.085-3.416c-0.563-1.308-0.963-2.645-1.205-4.011
			C201.063,139.441,200.943,138.038,200.943,136.597z"/>
	</g>
	<g>
		
			<radialGradient id="SVGID_00000060750039525854851750000014539448864292657324_" cx="146.8115" cy="252.4166" r="158.5258" gradientUnits="userSpaceOnUse">
			<stop  offset="0.2723" style="stop-color:#242424"/>
			<stop  offset="0.3688" style="stop-color:#282828"/>
			<stop  offset="0.4672" style="stop-color:#343434"/>
			<stop  offset="0.5665" style="stop-color:#494949"/>
			<stop  offset="0.6664" style="stop-color:#656565"/>
			<stop  offset="0.7669" style="stop-color:#8A8A8A"/>
			<stop  offset="0.8678" style="stop-color:#B8B8B8"/>
			<stop  offset="0.9673" style="stop-color:#ECECEC"/>
			<stop  offset="1" style="stop-color:#FFFFFF"/>
		</radialGradient>
		<path style="fill:url(#SVGID_00000060750039525854851750000014539448864292657324_);" d="M76.579,194.825l11.219-2.226
			c0,1.15,0.021,2.163,0.061,3.041c0.04,0.878,0.147,1.833,0.319,2.868c0.172,1.034,0.406,1.88,0.7,2.538
			c0.294,0.659,0.709,1.213,1.246,1.662c0.537,0.449,1.171,0.674,1.9,0.674c2.189,0,3.284-1.442,3.284-4.326
			c0-3.949-2.159-7.878-6.476-11.786l-3.436-3.009c-1.095-0.941-1.966-1.724-2.615-2.351c-0.649-0.628-1.414-1.474-2.295-2.539
			c-0.882-1.066-1.572-2.095-2.068-3.088c-0.497-0.993-0.922-2.188-1.277-3.589c-0.355-1.399-0.532-2.884-0.532-4.451
			c0-4.576,1.409-8.197,4.226-10.861c2.817-2.664,6.557-3.997,11.22-3.997c3.872,0,7.165,1.421,9.881,4.263
			c2.716,2.842,4.074,6.269,4.074,10.281l-0.031,0.408c0,0.272,0,0.585,0,0.94l-11.432,1.63c0-0.23,0.015-0.59,0.045-1.081
			c0.03-0.491,0.046-0.894,0.046-1.207c0-0.752-0.05-1.473-0.152-2.163c-0.102-0.69-0.269-1.379-0.502-2.069
			c-0.233-0.69-0.593-1.238-1.079-1.646c-0.487-0.408-1.075-0.611-1.764-0.611c-1.216,0-2.128,0.491-2.736,1.473
			c-0.608,0.983-0.912,2.142-0.912,3.479c0,1.171,0.177,2.268,0.532,3.292c0.354,1.024,0.891,1.98,1.611,2.868
			c0.719,0.888,1.383,1.625,1.991,2.21c0.608,0.586,1.419,1.301,2.432,2.148c1.014,0.846,1.733,1.468,2.159,1.865
			c1.561,1.421,2.878,2.753,3.953,3.996c1.074,1.244,2.087,2.649,3.041,4.216c0.952,1.567,1.666,3.26,2.143,5.078
			c0.476,1.818,0.714,3.782,0.714,5.892c0,3.95-1.368,7.184-4.105,9.702c-2.737,2.518-6.061,3.777-9.973,3.777
			c-2.534,0-4.784-0.481-6.75-1.442c-1.967-0.961-3.553-2.267-4.758-3.918c-1.207-1.65-2.134-3.479-2.782-5.486
			C77.055,199.276,76.68,197.124,76.579,194.825z"/>
		
			<radialGradient id="SVGID_00000013182961201067564390000013285311632137517471_" cx="146.8115" cy="252.4167" r="158.5259" gradientUnits="userSpaceOnUse">
			<stop  offset="0.2723" style="stop-color:#242424"/>
			<stop  offset="0.3688" style="stop-color:#282828"/>
			<stop  offset="0.4672" style="stop-color:#343434"/>
			<stop  offset="0.5665" style="stop-color:#494949"/>
			<stop  offset="0.6664" style="stop-color:#656565"/>
			<stop  offset="0.7669" style="stop-color:#8A8A8A"/>
			<stop  offset="0.8678" style="stop-color:#B8B8B8"/>
			<stop  offset="0.9673" style="stop-color:#ECECEC"/>
			<stop  offset="1" style="stop-color:#FFFFFF"/>
		</radialGradient>
		<path style="fill:url(#SVGID_00000013182961201067564390000013285311632137517471_);" d="M109.782,192.411v-18.963
			c0-13.332,5.33-19.998,15.992-19.998c10.682,0,16.023,6.666,16.023,19.998v18.682c0,2.257-0.162,4.341-0.486,6.253
			c-0.325,1.912-0.877,3.725-1.657,5.439c-0.781,1.713-1.774,3.171-2.98,4.372c-1.206,1.202-2.732,2.147-4.576,2.837
			c-1.845,0.689-3.952,1.034-6.324,1.034c-2.352,0-4.449-0.34-6.293-1.019c-1.845-0.678-3.365-1.598-4.561-2.758
			c-1.197-1.159-2.185-2.58-2.964-4.262c-0.78-1.682-1.338-3.474-1.672-5.376C109.949,196.748,109.782,194.668,109.782,192.411z
			 M130.73,194.981v-24.386c0-5.559-1.652-8.338-4.956-8.338c-0.993,0-1.835,0.256-2.523,0.768c-0.69,0.512-1.197,1.212-1.521,2.1
			c-0.324,0.889-0.552,1.766-0.684,2.632c-0.132,0.868-0.198,1.814-0.198,2.837v24.386c0,5.538,1.642,8.307,4.925,8.307
			C129.077,203.288,130.73,200.519,130.73,194.981z"/>
		
			<radialGradient id="SVGID_00000166672964729524266240000015698927534510680511_" cx="146.8115" cy="252.4167" r="158.5263" gradientUnits="userSpaceOnUse">
			<stop  offset="0.2723" style="stop-color:#242424"/>
			<stop  offset="0.3688" style="stop-color:#282828"/>
			<stop  offset="0.4672" style="stop-color:#343434"/>
			<stop  offset="0.5665" style="stop-color:#494949"/>
			<stop  offset="0.6664" style="stop-color:#656565"/>
			<stop  offset="0.7669" style="stop-color:#8A8A8A"/>
			<stop  offset="0.8678" style="stop-color:#B8B8B8"/>
			<stop  offset="0.9673" style="stop-color:#ECECEC"/>
			<stop  offset="1" style="stop-color:#FFFFFF"/>
		</radialGradient>
		<path style="fill:url(#SVGID_00000166672964729524266240000015698927534510680511_);" d="M146.905,192.411v-18.963
			c0-13.332,5.331-19.998,15.992-19.998c10.682,0,16.023,6.666,16.023,19.998v18.682c0,2.257-0.162,4.341-0.486,6.253
			c-0.325,1.912-0.877,3.725-1.657,5.439c-0.781,1.713-1.774,3.171-2.98,4.372c-1.206,1.202-2.732,2.147-4.576,2.837
			c-1.845,0.689-3.952,1.034-6.324,1.034c-2.352,0-4.449-0.34-6.293-1.019c-1.845-0.678-3.365-1.598-4.561-2.758
			c-1.197-1.159-2.185-2.58-2.964-4.262c-0.781-1.682-1.338-3.474-1.672-5.376C147.072,196.748,146.905,194.668,146.905,192.411z
			 M167.854,194.981v-24.386c0-5.559-1.653-8.338-4.956-8.338c-0.993,0-1.835,0.256-2.523,0.768c-0.69,0.512-1.197,1.212-1.521,2.1
			c-0.324,0.889-0.552,1.766-0.684,2.632c-0.132,0.868-0.198,1.814-0.198,2.837v24.386c0,5.538,1.642,8.307,4.925,8.307
			C166.201,203.288,167.854,200.519,167.854,194.981z"/>
		
			<radialGradient id="SVGID_00000010294594520661762620000010551205806933982113_" cx="146.8116" cy="252.4168" r="158.5261" gradientUnits="userSpaceOnUse">
			<stop  offset="0.2723" style="stop-color:#242424"/>
			<stop  offset="0.3688" style="stop-color:#282828"/>
			<stop  offset="0.4672" style="stop-color:#343434"/>
			<stop  offset="0.5665" style="stop-color:#494949"/>
			<stop  offset="0.6664" style="stop-color:#656565"/>
			<stop  offset="0.7669" style="stop-color:#8A8A8A"/>
			<stop  offset="0.8678" style="stop-color:#B8B8B8"/>
			<stop  offset="0.9673" style="stop-color:#ECECEC"/>
			<stop  offset="1" style="stop-color:#FFFFFF"/>
		</radialGradient>
		<path style="fill:url(#SVGID_00000010294594520661762620000010551205806933982113_);" d="M184.729,210.967v-56.453h7.966
			l12.009,29.527v-29.527h9.182v56.453h-7.661l-11.98-31.314v31.314H184.729z"/>
	</g>
	<g style="opacity:0.2;">
		
			<linearGradient id="SVGID_00000103257407163619573370000002193717027725340347_" gradientUnits="userSpaceOnUse" x1="91.3254" y1="180.748" x2="91.3254" y2="225.9266">
			<stop  offset="0.2723" style="stop-color:#242424"/>
			<stop  offset="0.3688" style="stop-color:#282828"/>
			<stop  offset="0.4672" style="stop-color:#343434"/>
			<stop  offset="0.5665" style="stop-color:#494949"/>
			<stop  offset="0.6664" style="stop-color:#656565"/>
			<stop  offset="0.7669" style="stop-color:#8A8A8A"/>
			<stop  offset="0.8678" style="stop-color:#B8B8B8"/>
			<stop  offset="0.9673" style="stop-color:#ECECEC"/>
			<stop  offset="1" style="stop-color:#FFFFFF"/>
		</linearGradient>
		<path style="fill:url(#SVGID_00000103257407163619573370000002193717027725340347_);" d="M76.579,194.825l11.219-2.226
			c0,1.15,0.021,2.163,0.061,3.041c0.04,0.878,0.147,1.833,0.319,2.868c0.172,1.034,0.406,1.88,0.7,2.538
			c0.294,0.659,0.709,1.213,1.246,1.662c0.537,0.449,1.171,0.674,1.9,0.674c2.189,0,3.284-1.442,3.284-4.326
			c0-3.949-2.159-7.878-6.476-11.786l-3.436-3.009c-1.095-0.941-1.966-1.724-2.615-2.351c-0.649-0.628-1.414-1.474-2.295-2.539
			c-0.882-1.066-1.572-2.095-2.068-3.088c-0.497-0.993-0.922-2.188-1.277-3.589c-0.355-1.399-0.532-2.884-0.532-4.451
			c0-4.576,1.409-8.197,4.226-10.861c2.817-2.664,6.557-3.997,11.22-3.997c3.872,0,7.165,1.421,9.881,4.263
			c2.716,2.842,4.074,6.269,4.074,10.281l-0.031,0.408c0,0.272,0,0.585,0,0.94l-11.432,1.63c0-0.23,0.015-0.59,0.045-1.081
			c0.03-0.491,0.046-0.894,0.046-1.207c0-0.752-0.05-1.473-0.152-2.163c-0.102-0.69-0.269-1.379-0.502-2.069
			c-0.233-0.69-0.593-1.238-1.079-1.646c-0.487-0.408-1.075-0.611-1.764-0.611c-1.216,0-2.128,0.491-2.736,1.473
			c-0.608,0.983-0.912,2.142-0.912,3.479c0,1.171,0.177,2.268,0.532,3.292c0.354,1.024,0.891,1.98,1.611,2.868
			c0.719,0.888,1.383,1.625,1.991,2.21c0.608,0.586,1.419,1.301,2.432,2.148c1.014,0.846,1.733,1.468,2.159,1.865
			c1.561,1.421,2.878,2.753,3.953,3.996c1.074,1.244,2.087,2.649,3.041,4.216c0.952,1.567,1.666,3.26,2.143,5.078
			c0.476,1.818,0.714,3.782,0.714,5.892c0,3.95-1.368,7.184-4.105,9.702c-2.737,2.518-6.061,3.777-9.973,3.777
			c-2.534,0-4.784-0.481-6.75-1.442c-1.967-0.961-3.553-2.267-4.758-3.918c-1.207-1.65-2.134-3.479-2.782-5.486
			C77.055,199.276,76.68,197.124,76.579,194.825z"/>
		
			<linearGradient id="SVGID_00000063595282690178833780000013898004233750677144_" gradientUnits="userSpaceOnUse" x1="125.7895" y1="180.748" x2="125.7895" y2="225.9266">
			<stop  offset="0.2723" style="stop-color:#242424"/>
			<stop  offset="0.3688" style="stop-color:#282828"/>
			<stop  offset="0.4672" style="stop-color:#343434"/>
			<stop  offset="0.5665" style="stop-color:#494949"/>
			<stop  offset="0.6664" style="stop-color:#656565"/>
			<stop  offset="0.7669" style="stop-color:#8A8A8A"/>
			<stop  offset="0.8678" style="stop-color:#B8B8B8"/>
			<stop  offset="0.9673" style="stop-color:#ECECEC"/>
			<stop  offset="1" style="stop-color:#FFFFFF"/>
		</linearGradient>
		<path style="fill:url(#SVGID_00000063595282690178833780000013898004233750677144_);" d="M109.782,192.411v-18.963
			c0-13.332,5.33-19.998,15.992-19.998c10.682,0,16.023,6.666,16.023,19.998v18.682c0,2.257-0.162,4.341-0.486,6.253
			c-0.325,1.912-0.877,3.725-1.657,5.439c-0.781,1.713-1.774,3.171-2.98,4.372c-1.206,1.202-2.732,2.147-4.576,2.837
			c-1.845,0.689-3.952,1.034-6.324,1.034c-2.352,0-4.449-0.34-6.293-1.019c-1.845-0.678-3.365-1.598-4.561-2.758
			c-1.197-1.159-2.185-2.58-2.964-4.262c-0.78-1.682-1.338-3.474-1.672-5.376C109.949,196.748,109.782,194.668,109.782,192.411z
			 M130.73,194.981v-24.386c0-5.559-1.652-8.338-4.956-8.338c-0.993,0-1.835,0.256-2.523,0.768c-0.69,0.512-1.197,1.212-1.521,2.1
			c-0.324,0.889-0.552,1.766-0.684,2.632c-0.132,0.868-0.198,1.814-0.198,2.837v24.386c0,5.538,1.642,8.307,4.925,8.307
			C129.077,203.288,130.73,200.519,130.73,194.981z"/>
		
			<linearGradient id="SVGID_00000030456279934232216890000016937820879461621933_" gradientUnits="userSpaceOnUse" x1="162.9131" y1="180.748" x2="162.9131" y2="225.9266">
			<stop  offset="0.2723" style="stop-color:#242424"/>
			<stop  offset="0.3688" style="stop-color:#282828"/>
			<stop  offset="0.4672" style="stop-color:#343434"/>
			<stop  offset="0.5665" style="stop-color:#494949"/>
			<stop  offset="0.6664" style="stop-color:#656565"/>
			<stop  offset="0.7669" style="stop-color:#8A8A8A"/>
			<stop  offset="0.8678" style="stop-color:#B8B8B8"/>
			<stop  offset="0.9673" style="stop-color:#ECECEC"/>
			<stop  offset="1" style="stop-color:#FFFFFF"/>
		</linearGradient>
		<path style="fill:url(#SVGID_00000030456279934232216890000016937820879461621933_);" d="M146.905,192.411v-18.963
			c0-13.332,5.331-19.998,15.992-19.998c10.682,0,16.023,6.666,16.023,19.998v18.682c0,2.257-0.162,4.341-0.486,6.253
			c-0.325,1.912-0.877,3.725-1.657,5.439c-0.781,1.713-1.774,3.171-2.98,4.372c-1.206,1.202-2.732,2.147-4.576,2.837
			c-1.845,0.689-3.952,1.034-6.324,1.034c-2.352,0-4.449-0.34-6.293-1.019c-1.845-0.678-3.365-1.598-4.561-2.758
			c-1.197-1.159-2.185-2.58-2.964-4.262c-0.781-1.682-1.338-3.474-1.672-5.376C147.072,196.748,146.905,194.668,146.905,192.411z
			 M167.854,194.981v-24.386c0-5.559-1.653-8.338-4.956-8.338c-0.993,0-1.835,0.256-2.523,0.768c-0.69,0.512-1.197,1.212-1.521,2.1
			c-0.324,0.889-0.552,1.766-0.684,2.632c-0.132,0.868-0.198,1.814-0.198,2.837v24.386c0,5.538,1.642,8.307,4.925,8.307
			C166.201,203.288,167.854,200.519,167.854,194.981z"/>
		
			<linearGradient id="SVGID_00000026121486343682651210000001954175840015348899_" gradientUnits="userSpaceOnUse" x1="199.3074" y1="180.748" x2="199.3074" y2="225.9266">
			<stop  offset="0.2723" style="stop-color:#242424"/>
			<stop  offset="0.3688" style="stop-color:#282828"/>
			<stop  offset="0.4672" style="stop-color:#343434"/>
			<stop  offset="0.5665" style="stop-color:#494949"/>
			<stop  offset="0.6664" style="stop-color:#656565"/>
			<stop  offset="0.7669" style="stop-color:#8A8A8A"/>
			<stop  offset="0.8678" style="stop-color:#B8B8B8"/>
			<stop  offset="0.9673" style="stop-color:#ECECEC"/>
			<stop  offset="1" style="stop-color:#FFFFFF"/>
		</linearGradient>
		<path style="fill:url(#SVGID_00000026121486343682651210000001954175840015348899_);" d="M184.729,210.967v-56.453h7.966
			l12.009,29.527v-29.527h9.182v56.453h-7.661l-11.98-31.314v31.314H184.729z"/>
	</g>
</g>
</svg>
